<?xml version="1.0" encoding="utf-8"?>
<!-- Generator: Adobe Illustrator 16.0.3, SVG Export Plug-In . SVG Version: 6.00 Build 0)  -->
<!DOCTYPE svg PUBLIC "-//W3C//DTD SVG 1.1//EN" "http://www.w3.org/Graphics/SVG/1.1/DTD/svg11.dtd">
<svg version="1.1" id="Layer_1" xmlns="http://www.w3.org/2000/svg" xmlns:xlink="http://www.w3.org/1999/xlink" x="0px" y="0px"
	 width="59.951px" height="59.953px" viewBox="0 0 59.951 59.953" enable-background="new 0 0 59.951 59.953" xml:space="preserve">
<g>
	<g>
		<path d="M14.341,37.396c9.767,0,19.533,0,29.3,0c3.225,0,3.225-5,0-5c-9.767,0-19.533,0-29.3,0
			C11.117,32.396,11.117,37.396,14.341,37.396L14.341,37.396z"/>
	</g>
</g>
<g>
	<g>
		<path d="M28.892,46.396c4.917,0,9.833,0,14.749,0c3.225,0,3.225-5,0-5c-4.916,0-9.833,0-14.749,0
			C25.668,41.396,25.668,46.396,28.892,46.396L28.892,46.396z"/>
	</g>
</g>
<g>
	<g>
		<path d="M23.091,28.396c6.85,0,13.7,0,20.55,0c3.225,0,3.225-5,0-5c-6.85,0-13.7,0-20.55,0
			C19.867,23.396,19.867,28.396,23.091,28.396L23.091,28.396z"/>
	</g>
</g>
<g>
	<g>
		<path d="M14.341,19.396c9.767,0,19.533,0,29.3,0c3.225,0,3.225-5,0-5c-9.767,0-19.533,0-29.3,0
			C11.117,14.396,11.117,19.396,14.341,19.396L14.341,19.396z"/>
	</g>
</g>
</svg>
