<?xml version="1.0" encoding="utf-8"?>
<!-- Generator: Adobe Illustrator 16.0.3, SVG Export Plug-In . SVG Version: 6.00 Build 0)  -->
<!DOCTYPE svg PUBLIC "-//W3C//DTD SVG 1.1//EN" "http://www.w3.org/Graphics/SVG/1.1/DTD/svg11.dtd">
<svg version="1.1" id="Layer_1" xmlns="http://www.w3.org/2000/svg" xmlns:xlink="http://www.w3.org/1999/xlink" x="0px" y="0px"
	 width="59.951px" height="59.953px" viewBox="0 0 59.951 59.953" enable-background="new 0 0 59.951 59.953" xml:space="preserve">
<g>
	<g>
		<path d="M17.849,21.385c6.906,6.906,13.812,13.812,20.718,20.718c2.281,2.282,5.817-1.254,3.535-3.535
			c-6.906-6.906-13.812-13.813-20.718-20.718C19.103,15.568,15.567,19.104,17.849,21.385L17.849,21.385z"/>
	</g>
</g>
<g>
	<g>
		<path d="M21.4,42.022c6.906-6.906,13.812-13.812,20.718-20.718c2.282-2.282-1.254-5.817-3.535-3.535
			c-6.906,6.906-13.812,13.812-20.718,20.718C15.583,40.769,19.118,44.304,21.4,42.022L21.4,42.022z"/>
	</g>
</g>
</svg>
